<svg width="111" height="111" viewBox="0 0 111 111" fill="none" xmlns="http://www.w3.org/2000/svg">
<circle cx="55.5" cy="55.5" r="55.5" fill="#5C4DCF"/>
<g clip-path="url(#clip0_103_42)">
<path d="M36.0314 29.0576H58.06C65.4801 29.0576 71.7151 31.6598 76.7649 36.8642C81.8148 42.0686 84.3397 48.4839 84.3397 56.1102C84.3397 63.788 81.8148 70.2291 76.7649 75.4335C71.7666 80.5864 65.5317 83.1628 58.06 83.1628H36.0314V29.0576ZM50.2534 69.7911H58.06C61.77 69.7911 64.836 68.5544 67.2579 66.081C69.6282 63.5561 70.8134 60.2325 70.8134 56.1102C70.8134 51.9364 69.6282 48.6385 67.2579 46.2167C64.8875 43.6918 61.8216 42.4293 58.06 42.4293H50.2534V69.7911Z" fill="#D3F844"/>
<rect x="79.514" y="31.3822" width="14.6027" height="25.518" transform="rotate(52.4694 79.514 31.3822)" fill="#5C4DCF"/>
<path d="M79.8207 40.5899L72.1236 47.5024L69.5447 44.1118L67.96 45.535L71.8283 50.6209L81.1102 42.2852L79.8207 40.5899Z" fill="#D3F844"/>
</g>
<defs>
<clipPath id="clip0_103_42">
<rect width="48.2356" height="54.0471" fill="white" transform="translate(36.0314 29.0576)"/>
</clipPath>
</defs>
</svg>
